<svg width="785" height="243" viewBox="0 0 785 243" fill="none" xmlns="http://www.w3.org/2000/svg">
<g clip-path="url(#clip0_304_151)">
<path fill-rule="evenodd" clip-rule="evenodd" d="M92.044 6.37834L156.604 71.3036L81.7445 146.586C77.2828 151.073 75.2892 157.102 75.7635 162.967L6.04901 92.8586C-2.01635 84.7475 -2.01633 71.5971 6.04902 63.4865L62.8367 6.37832C70.9019 -1.73256 83.9784 -1.73255 92.044 6.37834ZM264.06 6.45905C255.995 -1.65184 242.918 -1.65185 234.853 6.45904L92.0701 150.047C84.0053 158.158 84.0053 171.309 92.0701 179.42L148.858 236.528C156.924 244.639 170 244.639 178.065 236.528L320.848 92.9396C328.913 84.8285 328.913 71.6781 320.848 63.5673L264.06 6.45905Z" fill="#F4262F"/>
</g>
<path d="M393.358 159.941C387.032 159.941 381.714 158.899 377.405 156.816C373.187 154.733 370.024 151.699 367.916 147.714C365.898 143.729 364.89 138.702 364.89 132.634V107.093H359.114C356.547 107.093 354.53 106.414 353.063 105.055C351.688 103.697 351 101.84 351 99.4851C351 96.9491 351.688 95.0471 353.063 93.7792C354.53 92.4206 356.547 91.7413 359.114 91.7413H364.89V81.4163C364.89 77.9746 365.807 75.3934 367.641 73.6725C369.474 71.8611 372.041 70.9553 375.342 70.9553C378.734 70.9553 381.301 71.8611 383.043 73.6725C384.785 75.3934 385.656 77.9746 385.656 81.4163V91.7413H398.721C401.288 91.7413 403.259 92.4206 404.635 93.7792C406.01 95.0471 406.698 96.9491 406.698 99.4851C406.698 101.84 406.01 103.697 404.635 105.055C403.259 106.414 401.288 107.093 398.721 107.093H385.656V131.819C385.656 135.623 386.527 138.476 388.269 140.378C390.103 142.28 392.991 143.231 396.933 143.231C398.309 143.231 399.592 143.095 400.784 142.823C401.976 142.552 403.076 142.37 404.085 142.28C405.368 142.189 406.423 142.597 407.248 143.503C408.073 144.318 408.485 146.174 408.485 149.073C408.485 151.246 408.119 153.148 407.385 154.779C406.652 156.409 405.368 157.586 403.535 158.311C402.343 158.764 400.692 159.126 398.584 159.398C396.567 159.76 394.825 159.941 393.358 159.941ZM438.644 159.941C433.693 159.941 429.247 158.99 425.304 157.088C421.362 155.186 418.291 152.605 416.09 149.344C413.89 146.084 412.79 142.416 412.79 138.34C412.79 133.449 414.073 129.6 416.64 126.792C419.207 123.894 423.379 121.856 429.155 120.679C434.931 119.411 442.587 118.777 452.122 118.777H459.41V129.373H452.259C447.583 129.373 443.778 129.645 440.845 130.189C438.002 130.641 435.94 131.457 434.656 132.634C433.464 133.811 432.868 135.442 432.868 137.525C432.868 140.061 433.739 142.144 435.481 143.774C437.315 145.404 439.928 146.22 443.32 146.22C445.979 146.22 448.317 145.631 450.334 144.454C452.443 143.186 454.093 141.51 455.285 139.427C456.477 137.253 457.073 134.808 457.073 132.091V116.467C457.073 112.482 456.156 109.674 454.322 108.044C452.488 106.323 449.371 105.463 444.97 105.463C442.495 105.463 439.79 105.78 436.856 106.414C434.014 106.957 430.851 107.908 427.367 109.267C425.35 110.173 423.562 110.399 422.004 109.946C420.445 109.403 419.253 108.497 418.428 107.229C417.603 105.87 417.19 104.421 417.19 102.882C417.19 101.251 417.649 99.7116 418.566 98.2624C419.482 96.7228 420.995 95.5905 423.104 94.866C427.413 93.1451 431.447 91.9678 435.206 91.3338C439.057 90.6997 442.587 90.3828 445.796 90.3828C452.855 90.3828 458.631 91.4244 463.124 93.5075C467.708 95.5001 471.146 98.6247 473.438 102.882C475.73 107.048 476.876 112.437 476.876 119.048V149.208C476.876 152.56 476.051 155.141 474.401 156.952C472.75 158.764 470.367 159.669 467.249 159.669C464.132 159.669 461.703 158.764 459.961 156.952C458.31 155.141 457.485 152.56 457.485 149.208V144.182L458.448 144.997C457.898 148.076 456.706 150.748 454.872 153.012C453.13 155.186 450.884 156.907 448.133 158.175C445.383 159.352 442.22 159.941 438.644 159.941ZM503.095 159.669C499.61 159.669 496.951 158.764 495.118 156.952C493.284 155.141 492.368 152.56 492.368 149.208V100.98C492.368 97.6284 493.238 95.0925 494.981 93.3716C496.814 91.5602 499.335 90.6545 502.544 90.6545C505.845 90.6545 508.366 91.5602 510.108 93.3716C511.849 95.0925 512.721 97.6284 512.721 100.98V108.044H511.346C512.446 102.61 514.875 98.3983 518.635 95.4094C522.393 92.4206 527.252 90.7451 533.213 90.3828C535.504 90.2017 537.246 90.7903 538.438 92.1489C539.722 93.4168 540.409 95.5453 540.501 98.5341C540.684 101.342 540.089 103.561 538.714 105.191C537.429 106.821 535.229 107.818 532.112 108.18L528.949 108.452C523.723 108.904 519.826 110.399 517.26 112.935C514.784 115.471 513.546 119.139 513.546 123.939V149.208C513.546 152.56 512.629 155.141 510.796 156.952C509.054 158.764 506.486 159.669 503.095 159.669ZM542.991 183.988C540.515 184.078 538.544 183.671 537.077 182.765C535.611 181.859 534.602 180.682 534.051 179.233C533.501 177.874 533.364 176.47 533.639 175.021C533.823 173.572 534.419 172.304 535.427 171.217C536.436 170.13 537.811 169.496 539.552 169.315C543.128 169.043 545.696 168.047 547.254 166.326C548.904 164.696 549.729 162.16 549.729 158.718V100.98C549.729 97.6284 550.647 95.0925 552.48 93.3716C554.314 91.5602 556.881 90.6545 560.181 90.6545C563.482 90.6545 566.004 91.5602 567.745 93.3716C569.58 95.0925 570.496 97.6284 570.496 100.98V156.816C570.496 162.794 569.487 167.73 567.47 171.625C565.545 175.519 562.566 178.463 558.531 180.455C554.497 182.538 549.317 183.716 542.991 183.988ZM560.044 79.5143C556.285 79.5143 553.352 78.6539 551.242 76.933C549.226 75.1216 548.216 72.5856 548.216 69.3251C548.216 65.9739 549.226 63.438 551.242 61.7171C553.352 59.9057 556.285 59 560.044 59C563.894 59 566.829 59.9057 568.845 61.7171C570.863 63.438 571.871 65.9739 571.871 69.3251C571.871 72.5856 570.863 75.1216 568.845 76.933C566.829 78.6539 563.894 79.5143 560.044 79.5143ZM621.715 159.941C613.739 159.941 606.863 158.537 601.087 155.73C595.403 152.831 591.002 148.801 587.884 143.638C584.859 138.385 583.346 132.226 583.346 125.162C583.346 118.279 584.813 112.256 587.747 107.093C590.681 101.84 594.76 97.7642 599.986 94.866C605.304 91.8772 611.31 90.3828 618.002 90.3828C622.862 90.3828 627.263 91.1979 631.205 92.8282C635.147 94.3678 638.54 96.6322 641.381 99.621C644.224 102.519 646.379 106.097 647.845 110.354C649.312 114.52 650.045 119.184 650.045 124.347C650.045 126.068 649.495 127.381 648.395 128.287C647.295 129.102 645.691 129.509 643.582 129.509H600.399V118.913H635.055L632.855 120.815C632.855 117.101 632.305 114.022 631.205 111.576C630.104 109.04 628.501 107.138 626.391 105.87C624.375 104.602 621.853 103.968 618.827 103.968C615.436 103.968 612.548 104.738 610.163 106.278C607.78 107.818 605.947 110.037 604.662 112.935C603.379 115.833 602.737 119.32 602.737 123.396V124.483C602.737 131.366 604.342 136.438 607.55 139.699C610.851 142.959 615.711 144.589 622.128 144.589C624.328 144.589 626.85 144.318 629.692 143.774C632.534 143.231 635.193 142.37 637.668 141.193C639.778 140.197 641.656 139.88 643.307 140.242C644.957 140.514 646.241 141.238 647.157 142.416C648.075 143.593 648.579 144.952 648.67 146.491C648.854 148.031 648.533 149.571 647.708 151.11C646.882 152.56 645.507 153.782 643.582 154.779C640.465 156.499 636.935 157.767 632.992 158.583C629.142 159.488 625.383 159.941 621.715 159.941ZM694.865 159.941C688.539 159.941 683.221 158.899 678.912 156.816C674.694 154.733 671.531 151.699 669.423 147.714C667.405 143.729 666.397 138.702 666.397 132.634V107.093H660.621C658.054 107.093 656.037 106.414 654.57 105.055C653.195 103.697 652.507 101.84 652.507 99.4851C652.507 96.9491 653.195 95.0471 654.57 93.7792C656.037 92.4206 658.054 91.7413 660.621 91.7413H666.397V81.4163C666.397 77.9746 667.314 75.3934 669.148 73.6725C670.981 71.8611 673.548 70.9553 676.849 70.9553C680.242 70.9553 682.808 71.8611 684.55 73.6725C686.293 75.3934 687.163 77.9746 687.163 81.4163V91.7413H700.228C702.796 91.7413 704.767 92.4206 706.142 93.7792C707.517 95.0471 708.205 96.9491 708.205 99.4851C708.205 101.84 707.517 103.697 706.142 105.055C704.767 106.414 702.796 107.093 700.228 107.093H687.163V131.819C687.163 135.623 688.034 138.476 689.776 140.378C691.61 142.28 694.498 143.231 698.44 143.231C699.816 143.231 701.099 143.095 702.291 142.823C703.484 142.552 704.584 142.37 705.592 142.28C706.875 142.189 707.93 142.597 708.755 143.503C709.58 144.318 709.993 146.174 709.993 149.073C709.993 151.246 709.625 153.148 708.892 154.779C708.159 156.409 706.875 157.586 705.042 158.311C703.849 158.764 702.199 159.126 700.091 159.398C698.073 159.76 696.332 159.941 694.865 159.941ZM749.106 159.941C741.864 159.941 735.538 158.537 730.128 155.73C724.811 152.922 720.685 148.892 717.75 143.638C714.817 138.385 713.35 132.181 713.35 125.026C713.35 119.682 714.175 114.882 715.825 110.625C717.475 106.369 719.86 102.746 722.976 99.7568C726.186 96.6774 729.99 94.3678 734.391 92.8282C738.792 91.1979 743.697 90.3828 749.106 90.3828C756.349 90.3828 762.63 91.7866 767.947 94.5943C773.357 97.402 777.528 101.387 780.462 106.55C783.487 111.712 785 117.871 785 125.026C785 130.46 784.129 135.306 782.387 139.563C780.737 143.819 778.353 147.488 775.236 150.567C772.119 153.646 768.314 156.001 763.821 157.632C759.42 159.171 754.516 159.941 749.106 159.941ZM749.106 144.589C752.132 144.589 754.745 143.865 756.945 142.416C759.145 140.966 760.888 138.838 762.171 136.03C763.455 133.132 764.096 129.464 764.096 125.026C764.096 118.414 762.721 113.569 759.971 110.489C757.22 107.32 753.599 105.735 749.106 105.735C746.173 105.735 743.56 106.414 741.267 107.772C739.067 109.131 737.326 111.259 736.041 114.158C734.85 116.965 734.253 120.588 734.253 125.026C734.253 131.638 735.629 136.574 738.379 139.834C741.13 143.004 744.705 144.589 749.106 144.589Z" fill="#F4262F"/>
<defs>
<clipPath id="clip0_304_151">
<rect width="327" height="243" fill="white"/>
</clipPath>
</defs>
</svg>
